# xmcd
#
# Track frame offsets:
#	150
#	7891
#	15797
#	28538
#	38079
#	47313
#	58677
#	74569
#	94247
#	102225
#	115411
#	125236
#	133671
#	148064
#	159516
#	167489
#	189767
#	202419
#	212466
#	227131
#	237363
#	251591
#	263580
#	271854
#
# Disc length: 3822 seconds
#
# Revision: 1
# Processed by: cddbd v1.5.1PL2 Copyright (c) Steve Scherf et al.
# Submitted via: audiograbber 1.83.01
#
DISCID=490eec18
DTITLE=Various Artist - BLUFF COUNTRY GATHERING 2000-2004
DYEAR=2005
DGENRE=Country
TTITLE0=GEOFF SEITZ - Molly Put the Kettle On
TTITLE1=JIMMY TRIPLETT - Old Wylie
TTITLE2=CARL JONES and BEVERLY SMITH - Mississippi Shore
TTITLE3=RHYTHM RATS - Tennessee Breakdown
TTITLE4=BRUCE GREENE - Flander's Dream
TTITLE5=DAN GELLERT - The Cuckoo
TTITLE6=JAMES BRYAN - Lantern in the Ditch
TTITLE7=NEW SOUTHERN BROADCASTERS - Chilly Winds
TTITLE8=VESTA JOHNSON - Rosin the Bow
TTITLE9=KERRY BLECH - Snowbird in the Ashbank
TTITLE10=GEOFF SEITZ and BOB CARLIN - Yellow Barber
TTITLE11=BRUCE GREENE - The Wabash
TTITLE12=ERIC and SUZY THOMPSON - Stop and Listen Blues
TTITLE13=RAYNA GELLERT - Katy Bar the Door
TTITLE14=BOB CARLIN - Boatman
TTITLE15=DAN GELLERT: Pateroller - Old Sledge
TTITLE16=NEW SOUTHERN BROADCASTERS - Hickman Rag
TTITLE17=RHYTHM RATS - Kentucky Winder
TTITLE18=JAMES BRYAN - Oyster River Hornpipe
TTITLE19=RAYNA GELLERT - Folding Down the Sheets
TTITLE20=CARL JONES and BEVERLY SMITH - Robert's Serenade
TTITLE21=BILL DILLOF - All I Got's Gone
TTITLE22=JIMMY TRIPLETT - Fisherman's Girl
TTITLE23=NEW SOUTHERN BROADCASTERS - My Little Doney
EXTD=
EXTT0=
EXTT1=
EXTT2=
EXTT3=
EXTT4=
EXTT5=
EXTT6=
EXTT7=
EXTT8=
EXTT9=
EXTT10=
EXTT11=
EXTT12=
EXTT13=
EXTT14=
EXTT15=
EXTT16=
EXTT17=
EXTT18=
EXTT19=
EXTT20=
EXTT21=
EXTT22=
EXTT23=
PLAYORDER=
